Input #0, mov,mp4,m4a,3gp,3g2,mj2, from 'C:\Users\sulta\OneDrive - Invesense Asset Management Limited\Documents\remotion\benchmarks\.cache\source\whatsapp-video-2026-05-19-at-71230-pm-1-98bf44e4.mp4':
  Metadata:
    major_brand     : mp42
    minor_version   : 0
    compatible_brands: mp42isom
  Duration: 00:00:46.84, start: 0.000000, bitrate: 1386 kb/s
  Stream #0:0[0x1](und): Video: h264 (Baseline) (avc1 / 0x31637661), yuv420p(tv, bt709, progressive), 576x1024, 1323 kb/s, 28.18 fps, 85.71 tbr, 600 tbn (default)
  Stream #0:1[0x2](und): Audio: aac (LC) (mp4a / 0x6134706D), 44100 Hz, stereo, fltp, 61 kb/s (default)
Stream mapping:
  Stream #0:0 -> #0:0 (h264 (native) -> wrapped_avframe (native))
Press [q] to stop, [?] for help
Output #0, null, to 'NUL':
  Metadata:
    major_brand     : mp42
    minor_version   : 0
    compatible_brands: mp42isom
    encoder         : Lavf62.12.101
  Stream #0:0(und): Video: wrapped_avframe, yuv420p(tv, bt709, progressive), 576x1024, q=2-31, 200 kb/s, 85.71 fps, 85.71 tbn (default)
    Metadata:
      encoder         : Lavc62.28.101 wrapped_avframe
[Parsed_scdet_0 @ 000001b68f6a2940] lavfi.scd.score: 79.930, lavfi.scd.time: 2.041667
[Parsed_scdet_0 @ 000001b68f6a2940] lavfi.scd.score: 70.847, lavfi.scd.time: 2.858333
[Parsed_scdet_0 @ 000001b68f6a2940] lavfi.scd.score: 75.692, lavfi.scd.time: 5.215
[out#0/null @ 000001b68f6a3700] video:547KiB audio:0KiB subtitle:0KiB other streams:0KiB global headers:0KiB muxing overhead: unknown
frame= 1320 fps=0.0 q=-0.0 Lsize=N/A time=00:00:46.84 bitrate=N/A speed= 409x elapsed=0:00:00.11    
